<?xml version="1.0" encoding="UTF-8"?>
<svg id="Layer_1" data-name="Layer 1" xmlns="http://www.w3.org/2000/svg" viewBox="0 0 36.08 41.22">
  <defs>
    <style>
      .cls-1 {
        fill: #fff;
        stroke-width: 0px;
      }
    </style>
  </defs>
  <path class="cls-1" d="M30.37,41.22H5.71c-.07-.03-.14-.06-.21-.08C2.24,40.6,0,37.99,0,34.71c0-6.38,0-12.75,0-19.13,0-1.6,1.09-2.69,2.69-2.69,1.2,0,2.39,0,3.59,0,.69,0,1.37,0,2.1,0,0-1.07,0-2.09,0-3.12.01-5.04,3.59-9.08,8.58-9.7,4.94-.61,9.74,2.88,10.54,7.78.24,1.47.15,2.99.2,4.49,0,.18,0,.35,0,.54,1.96,0,3.85,0,5.73,0,1.53,0,2.64,1.11,2.64,2.65,0,6.44.01,12.88,0,19.32,0,2.84-1.9,5.32-4.64,6.11-.35.1-.71.18-1.06.26ZM12.15,12.85h11.68c0-1.13.02-2.23,0-3.34-.05-2.89-2.31-5.31-5.24-5.63-2.76-.3-5.56,1.58-6.12,4.32-.3,1.49-.22,3.07-.31,4.64ZM10.31,16.1c-1.06,0-1.93.86-1.93,1.93,0,1.06.87,1.93,1.93,1.93,1.06,0,1.93-.87,1.93-1.93,0-1.06-.87-1.93-1.93-1.93ZM25.75,19.97c1.06,0,1.94-.86,1.94-1.92,0-1.06-.86-1.94-1.92-1.94-1.06,0-1.94.86-1.94,1.92,0,1.06.86,1.94,1.92,1.94Z"/>
</svg>