<?xml version="1.0" encoding="UTF-8"?>
<svg id="Layer_1" data-name="Layer 1" xmlns="http://www.w3.org/2000/svg" viewBox="0 0 53.38 45.27">
  <defs>
    <style>
      .cls-1 {
        fill: #fff;
        stroke-width: 0px;
      }
    </style>
  </defs>
  <path class="cls-1" d="M53.33,14.11c.55-3.88-3.19-4.84-7.63-4.69,1.38-1.53,2.47-3.15,2.8-4.72,1.11-7.92-15.64-3.7-19.74-2.58,3.18-.11,6.36-.26,9.52-.18,2.18.08,4.59.14,6.6.95.39.18.81.43.89.77.01.09.01.23-.05.44-.61,1.69-2.93,3.88-5.49,5.93-2.83.49-5.36,1.15-6.65,1.5,1.64-.05,3.28-.12,4.92-.16-2.01,1.51-3.98,2.85-5.21,3.72-2.18,1.49-4.39,2.95-6.6,4.39-2.22-1.44-4.42-2.9-6.6-4.39-1.24-.87-3.2-2.21-5.21-3.72,1.64.05,3.28.12,4.92.16-1.29-.35-3.82-1.01-6.65-1.5-2.56-2.05-4.87-4.23-5.49-5.93-.06-.21-.06-.35-.05-.44,0-.09.06-.2.22-.35.7-.59,1.7-.79,2.68-.99,4.65-.71,9.41-.32,14.11-.2C20.51,1,3.77-3.21,4.88,4.71c.33,1.56,1.42,3.19,2.8,4.72C3.25,9.27-.49,10.24.05,14.11c.81,3.87,6.29,8.09,9.29,10.45,1.46,1.09,2.95,2.15,4.46,3.18-4.17,2.66-8.33,5.34-12.43,8.13,2.99-1.13,5.92-2.43,8.82-3.77,1.96-.93,3.91-1.88,5.85-2.86,2.5,1.64,5.06,3.19,7.65,4.68-5.86,3.73-11.74,7.44-17.5,11.36,2.99-1.13,5.92-2.43,8.82-3.77,3.94-1.86,7.84-3.82,11.66-5.92,3.82,2.09,7.72,4.05,11.66,5.92,2.9,1.34,5.83,2.64,8.82,3.77-5.76-3.91-11.64-7.63-17.5-11.36,2.59-1.49,5.15-3.04,7.65-4.68,1.94.98,3.89,1.93,5.85,2.86,2.9,1.34,5.83,2.64,8.82,3.77-4.1-2.78-8.26-5.47-12.43-8.13,1.51-1.03,2.99-2.08,4.46-3.18,3.01-2.36,8.48-6.58,9.29-10.45ZM15.26,24.5c-3.18-2.24-11.2-7.6-12.43-10.98-.06-.21-.06-.35-.05-.44,0-.09.06-.2.22-.35.7-.59,1.7-.79,2.68-.99,1.31-.2,2.62-.31,3.94-.37,1.6,1.48,3.29,2.8,4.55,3.78,3.03,2.26,6.16,4.38,9.37,6.37-2.17,1.39-4.35,2.78-6.52,4.16-.59-.4-1.17-.79-1.76-1.19ZM26.69,32.01c-2.38-1.52-4.75-3.05-7.1-4.61,2.4-1.27,4.76-2.59,7.1-3.97,2.33,1.38,4.7,2.7,7.1,3.97-2.35,1.55-4.72,3.08-7.1,4.61ZM29.84,21.53c3.2-1.99,6.33-4.11,9.37-6.37,1.26-.99,2.95-2.3,4.55-3.78,2.01.08,4.14.19,5.96.93.39.18.81.43.89.77.01.09.01.23-.05.44-1.22,3.38-9.26,8.75-12.43,10.98-.58.4-1.17.8-1.76,1.19-2.18-1.39-4.35-2.77-6.52-4.16Z"/>
</svg>