<?xml version="1.0" encoding="UTF-8"?>
<svg id="Layer_1" data-name="Layer 1" xmlns="http://www.w3.org/2000/svg" viewBox="0 0 31.72 31.72">
  <defs>
    <style>
      .cls-1 {
        fill: #010101;
        stroke-width: 0px;
      }
    </style>
  </defs>
  <path class="cls-1" d="M11.1,0C4.99,0,0,4.99,0,11.1s4.99,11.1,11.1,11.1c2.77,0,5.3-1.03,7.25-2.73l.68.68v2.05l9.51,9.51,3.17-3.17-9.51-9.51h-2.05l-.68-.68c1.69-1.95,2.73-4.48,2.73-7.25C22.2,4.99,17.21,0,11.1,0ZM11.1,3.17c4.4,0,7.93,3.53,7.93,7.93s-3.53,7.93-7.93,7.93-7.93-3.53-7.93-7.93,3.53-7.93,7.93-7.93Z"/>
</svg>