<?xml version="1.0" encoding="UTF-8"?>
<svg id="Layer_1" data-name="Layer 1" xmlns="http://www.w3.org/2000/svg" viewBox="0 0 268.97 45.56">
  <defs>
    <style>
      .cls-1 {
        fill: #fff;
        stroke-width: 0px;
      }
    </style>
  </defs>
  <path class="cls-1" d="M7.43,40.73c-4.75-3.09-7.43-7.28-7.43-11.6V2.37C0,1.24.91.33,2.03.33h8.31c1.12,0,2.03.91,2.03,2.03v26.32c0,2.32,1.48,4.57,3.96,6.19,2.57,1.68,6.04,2.58,9.6,2.58,6.73,0,12.18-3.54,12.18-7.93V2.37c0-1.12.91-2.03,2.03-2.03h8.31c1.12,0,2.03.91,2.03,2.03v26.77c0,4.32-2.67,8.5-7.43,11.6-4.75,3.09-11.19,4.83-17.82,4.83s-13.07-1.74-17.82-4.83Z"/>
  <path class="cls-1" d="M121.28,29.19v14.21c0,1.12-.91,2.03-2.03,2.03h-8.31c-1.12,0-2.03-.91-2.03-2.03V2.3c0-1.12.91-2.03,2.03-2.03l46.42-.06c1.12,0,2.04.91,2.04,2.03v12.65c0,6.35-4,11.82-11.13,14.57-1.53.59-1.78,2.64-.43,3.57,2.46,1.71,5.6,3.12,8.93,4.33,1.29.47,1.74,2.07.9,3.15l-2.93,3.77c-.53.68-1.43.96-2.25.69-9.05-3.08-16.94-7.42-20.31-13.47-.27-.48-.72-.83-1.25-.96-2.61-.65-4.69-1.71-6.35-2.96-1.35-1.02-3.28-.09-3.28,1.6ZM134.15,23.27c7.03,0,12.87-3.74,12.87-8.38v-4.54c0-1.12-.91-2.03-2.03-2.03h-21.67c-1.12,0-2.03.91-2.03,2.03v4.54c0,4.64,5.74,8.38,12.87,8.38Z"/>
  <path class="cls-1" d="M203.4.33h8.31c1.12,0,2.03.91,2.03,2.03v41.1c0,1.12-.91,2.03-2.03,2.03h-8.31c-1.12,0-2.03-.91-2.03-2.03v-15.33c0-1.12-.91-2.03-2.03-2.03h-21.57c-1.12,0-2.03.91-2.03,2.03v15.33c0,1.12-.91,2.03-2.03,2.03h-8.31c-1.12,0-2.03-.91-2.03-2.03V2.37c0-1.12.91-2.03,2.03-2.03h8.31c1.12,0,2.03.91,2.03,2.03v13.65c0,1.12.91,2.03,2.03,2.03h21.57c1.12,0,2.03-.91,2.03-2.03V2.37c0-1.12.91-2.03,2.03-2.03Z"/>
  <path class="cls-1" d="M251.88,1.59l16.94,41.16c.55,1.34-.43,2.81-1.88,2.81h-8.37c-.82,0-1.57-.5-1.88-1.26l-10.97-26.59c-.69-1.68-3.07-1.68-3.76,0l-10.97,26.59c-.31.76-1.06,1.26-1.88,1.26h-8.37c-1.45,0-2.43-1.47-1.88-2.81L235.8,1.59c.31-.76,1.06-1.26,1.88-1.26h12.32c.82,0,1.57.5,1.88,1.26Z"/>
  <path class="cls-1" d="M101.64,0h-44.42c-1.67,0-3.04,1.37-3.04,3.04v39.29c0,1.67,1.37,3.04,3.04,3.04h7.3c1.12,0,12.24.06,18.17.06,13.86,0,21.98-7.35,21.98-16.43V3.04c0-1.67-1.37-3.04-3.04-3.04ZM95.39,13.12v12.72c0,5.52-4.93,9.98-13.36,9.98-3.6,0-10.36-.04-11.04-.04h-4.44c-1.01,0-1.85-.83-1.85-1.85V10.08c0-1.01.83-1.85,1.85-1.85h25.1c2.06,0,3.74,1.68,3.74,3.74v1.15Z"/>
</svg>